<?xml version="1.0" standalone="no"?>
<!DOCTYPE svg PUBLIC "-//W3C//DTD SVG 1.1//EN" "http://www.w3.org/Graphics/SVG/1.1/DTD/svg11.dtd" >
<svg xmlns="http://www.w3.org/2000/svg">
<metadata></metadata>
<defs>
<font id="helvetica_worlditalic" horiz-adv-x="1139" >
<font-face units-per-em="2048" ascent="1638" descent="-410" />
<missing-glyph horiz-adv-x="500" />
<glyph horiz-adv-x="1024" />
<glyph horiz-adv-x="1024" />
<glyph unicode="&#xd;" horiz-adv-x="1024" />
<glyph unicode=" "  horiz-adv-x="500" />
<glyph unicode="&#x09;" horiz-adv-x="500" />
<glyph unicode="&#xa0;" horiz-adv-x="500" />
<glyph unicode="!" horiz-adv-x="569" d="M74 0l44 209h199l-44 -209h-199zM197 350l86 635l103 485h199l-103 -485l-184 -635h-101z" />
<glyph unicode="&#x22;" horiz-adv-x="727" d="M235 948l110 522h149l-110 -522h-149zM527 948l110 522h149l-110 -522h-149z" />
<glyph unicode="#" d="M49 430l31 129h211l66 291h-211l29 129h211l97 430h138l-98 -430h254l98 430h137l-98 -430h211l-29 -129h-211l-68 -291h211l-30 -129h-211l-98 -430h-135l97 430h-256l-97 -430h-135l97 430h-211zM426 559h256l66 291h-254z" />
<glyph unicode="$" d="M32 304q0 61 17 132h180q-13 -55 -13 -107q0 -188 217 -215l115 542q-351 67 -351 334q0 201 150 333.5t370 132.5l28 131h96l-28 -131q342 -40 342 -307q0 -37 -8 -82h-174q4 23 4 49q0 173 -197 186l-103 -488q204 -50 291 -132.5t87 -223.5q0 -227 -167 -361 t-392 -136l-42 -197h-96l42 197q-181 16 -274.5 105.5t-93.5 237.5zM385 1019q0 -145 200 -184l100 469h-2q-120 0 -209 -80.5t-89 -204.5zM528 112q131 0 231 89t100 224q0 160 -220 209z" />
<glyph unicode="%" horiz-adv-x="1820" d="M190 1002q0 174 121.5 297.5t301.5 123.5q124 0 208.5 -76.5t84.5 -196.5q0 -170 -124 -296.5t-294 -126.5q-133 0 -215.5 78t-82.5 197zM326 -39l1122 1479h123l-1125 -1479h-120zM336 1034q0 -73 49 -118.5t126 -45.5q99 0 173.5 76.5t74.5 169.5q0 73 -49.5 118.5 t-124.5 45.5q-108 0 -178.5 -75.5t-70.5 -170.5zM993 261q0 174 121.5 297.5t301.5 123.5q124 0 208.5 -76.5t84.5 -196.5q0 -170 -124 -296.5t-294 -126.5q-133 0 -215.5 78t-82.5 197zM1139 293q0 -73 49 -118.5t126 -45.5q99 0 173.5 76.5t74.5 169.5q0 73 -49.5 118.5 t-124.5 45.5q-108 0 -178.5 -75.5t-70.5 -170.5z" />
<glyph unicode="&#x26;" horiz-adv-x="1341" d="M42 299q0 321 439 518q-95 144 -95 257q0 171 123 283.5t289 112.5q131 0 210 -68.5t79 -182.5q0 -137 -94.5 -242.5t-266.5 -194.5l200 -319q72 104 114 229h170q-67 -203 -203 -379l194 -313h-229l-99 163q-90 -92 -200 -143t-264 -51q-168 0 -267.5 85.5t-99.5 244.5z M228 329q0 -91 61 -147.5t158 -56.5q188 0 353 164l-245 405q-327 -150 -327 -365zM567 1115q0 -104 90 -216q134 72 190 140.5t56 150.5q0 63 -34.5 94t-90.5 31q-93 0 -152 -57t-59 -143z" />
<glyph unicode="'" horiz-adv-x="391" d="M213 948l110 522h149l-110 -522h-149z" />
<glyph unicode="(" horiz-adv-x="682" d="M111 235q0 641 583 1266h125q-523 -641 -523 -1324q0 -244 116 -601h-120q-181 378 -181 659z" />
<glyph unicode=")" horiz-adv-x="682" d="M-129 -424q523 641 523 1324q0 244 -116 601h120q181 -378 181 -659q0 -641 -583 -1266h-125z" />
<glyph unicode="*" horiz-adv-x="797" d="M227 1210l65 113l199 -78l47 225h123l-47 -225l231 78l17 -113l-235 -69l96 -189l-115 -69l-93 192l-173 -192l-86 69l178 189z" />
<glyph unicode="+" horiz-adv-x="1200" d="M82 442v150h444v442h150v-442h442v-150h-442v-442h-150v442h-444z" />
<glyph unicode="," horiz-adv-x="569" d="M4 -301l20 94q112 13 153 207h-109l46 217h213l-43 -201q-32 -152 -112 -229q-81 -78 -168 -88z" />
<glyph unicode="-" horiz-adv-x="682" d="M81 475l39 184h502l-39 -184h-502z" />
<glyph unicode="." horiz-adv-x="569" d="M68 0l46 217h213l-46 -217h-213z" />
<glyph unicode="/" horiz-adv-x="569" d="M-153 -39l833 1548h135l-831 -1548h-137z" />
<glyph unicode="0" d="M81 412q0 399 171.5 713.5t482.5 314.5q197 0 299 -122.5t102 -328.5q0 -399 -171.5 -713.5t-482.5 -314.5q-197 0 -299 122.5t-102 328.5zM273 421q0 -138 52 -218t171 -80q208 0 328 260t120 597q0 138 -52 218t-171 80q-208 0 -328 -260t-120 -597z" />
<glyph unicode="1" d="M314 1022l31 143q175 7 271 56.5t171 218.5h144l-306 -1440h-192l217 1022h-336z" />
<glyph unicode="2" d="M-54 0q80 388 453 581l287 142q150 76 211.5 157t61.5 178q0 103 -62.5 161.5t-173.5 58.5q-286 0 -365 -354h-180q102 516 576 516q183 0 291 -96.5t108 -253.5q0 -152 -85.5 -276.5t-302.5 -231.5l-276 -136q-237 -117 -301 -276h776l-36 -170h-982z" />
<glyph unicode="3" d="M39 318q0 57 15 122h185q-12 -51 -12 -94q0 -105 67 -164t197 -59q165 0 267 91t102 246q0 105 -66 155.5t-221 50.5q-37 0 -83 -2l33 155q46 -4 93 -4q144 0 237 76t93 197q0 87 -56 138.5t-167 51.5q-289 0 -346 -309h-177q86 471 545 471q181 0 287 -86t106 -234 q0 -248 -257 -363v-4q180 -64 180 -271q0 -230 -167.5 -375.5t-423.5 -145.5q-200 0 -315.5 99t-115.5 258z" />
<glyph unicode="4" d="M15 350l38 176l844 914h159l-198 -934h211l-34 -156h-211l-74 -350h-180l74 350h-629zM221 506h457l139 659h-4z" />
<glyph unicode="5" d="M30 294q0 32 4 63h184q-1 -18 -1 -31q0 -102 63.5 -155.5t179.5 -53.5q186 0 290.5 120t104.5 264q0 118 -70.5 191t-193.5 73q-170 0 -294 -137h-159l275 780h170h579l-37 -176h-611l-145 -395q134 89 273 89q186 0 299 -105t113 -275q0 -231 -159 -408t-453 -177 q-188 0 -300 90.5t-112 242.5z" />
<glyph unicode="6" d="M77 413q0 389 198.5 708t515.5 319q163 0 261 -88.5t98 -229.5q0 -28 -5 -65h-176q2 116 -47.5 168.5t-153.5 52.5q-166 0 -292.5 -165.5t-168.5 -366.5l4 -4q150 176 371 176q163 0 272.5 -100.5t109.5 -256.5q0 -248 -168 -423.5t-410 -175.5q-195 0 -302 121.5 t-107 329.5zM268 360q0 -106 63.5 -171.5t176.5 -65.5q150 0 255.5 123t105.5 285q0 105 -62 165t-172 60q-159 0 -263 -118.5t-104 -277.5z" />
<glyph unicode="7" d="M171 0q209 601 843 1233h-786l37 176h995l-33 -158q-591 -527 -853 -1251h-203z" />
<glyph unicode="8" d="M41 323q0 151 87.5 267t247.5 173q-147 81 -147 245q0 181 148.5 306.5t363.5 125.5q175 0 284 -86.5t109 -233.5q0 -230 -260 -359q172 -82 172 -289q0 -213 -161.5 -362t-411.5 -149q-181 0 -306.5 96.5t-125.5 265.5zM239 360q0 -110 66.5 -173.5t185.5 -63.5 q159 0 259 96.5t100 233.5q0 105 -67 164t-176 59q-146 0 -257 -90t-111 -226zM421 1024q0 -88 63 -140.5t151 -52.5q116 0 211.5 74t95.5 186q0 91 -60.5 139t-162.5 48q-129 0 -213.5 -73.5t-84.5 -180.5z" />
<glyph unicode="9" d="M58 277q0 33 5 68h178q-2 -22 -2 -34q0 -104 52 -151.5t148 -47.5q149 0 265.5 129t192.5 408l-4 4q-148 -172 -365 -172q-159 0 -264 102t-105 258q0 243 171 421t407 178q193 0 295 -114.5t102 -316.5q0 -353 -190.5 -700t-515.5 -347q-171 0 -270.5 85.5t-99.5 229.5z M350 875q0 -106 64 -169t174 -63q149 0 253 118t104 281q0 105 -61.5 170.5t-168.5 65.5q-148 0 -256.5 -122.5t-108.5 -280.5z" />
<glyph unicode=":" horiz-adv-x="569" d="M68 0l46 217h213l-46 -217h-213zM248 840l46 217h213l-46 -217h-213z" />
<glyph unicode=";" horiz-adv-x="569" d="M4 -301l20 94q112 13 153 207h-109l46 217h213l-43 -201q-32 -152 -112 -229q-81 -78 -168 -88zM248 840l46 217h213l-46 -217h-213z" />
<glyph unicode="&#x3c;" horiz-adv-x="1200" d="M82 446v144l1036 424v-164l-835 -332l835 -332v-163z" />
<glyph unicode="=" horiz-adv-x="1200" d="M82 236v150h1036v-150h-1036zM82 649v150h1036v-150h-1036z" />
<glyph unicode="&#x3e;" horiz-adv-x="1200" d="M82 23v163l835 332l-835 332v164l1036 -424v-144z" />
<glyph unicode="?" d="M224 1010q34 227 179 353t364 126q158 0 263.5 -90.5t105.5 -232.5q0 -97 -43.5 -182t-228.5 -234q-154 -125 -193.5 -190.5t-65.5 -184.5h-178q30 137 76.5 221t225.5 229q147 119 181.5 176.5t34.5 139.5q0 88 -55.5 140t-146.5 52q-147 0 -231.5 -82t-107.5 -241h-180 zM343 0l44 209h198l-44 -209h-198z" />
<glyph unicode="@" horiz-adv-x="1777" d="M150 522q0 339 220 568t552 229q297 0 501 -185.5t204 -453.5q0 -243 -163.5 -417t-328.5 -174q-113 0 -129 126l-4 1q-126 -127 -249 -127q-122 0 -210 93t-88 234q0 225 138 395t335 170q165 0 236 -159l41 127h139q-27 -97 -105.5 -361.5t-78.5 -311.5q0 -54 43 -54 q104 0 197.5 142t93.5 300q0 227 -162 377.5t-410 150.5q-270 0 -446 -186.5t-176 -472.5q0 -295 177.5 -463.5t458.5 -168.5q277 0 485 213h137q-235 -340 -626 -340q-335 0 -558.5 199.5t-223.5 548.5zM623 435q0 -93 49 -146t123 -53q118 0 211.5 134t93.5 276 q0 73 -49 130.5t-119 57.5q-125 0 -217 -128t-92 -271z" />
<glyph unicode="A" horiz-adv-x="1365" d="M-85 0l865 1470h225l220 -1470h-217l-54 428h-590l-245 -428h-204zM463 604h456l-79 647h-4z" />
<glyph unicode="B" horiz-adv-x="1377" d="M55 0l312 1470h198h429q178 0 272.5 -75.5t94.5 -219.5q0 -258 -271 -382q200 -70 200 -272q0 -224 -176.5 -372.5t-436.5 -148.5h-428h-194zM289 170h402q172 0 283.5 86.5t111.5 235.5q0 94 -68 144t-230 50h-389zM433 848h337q190 0 286.5 71.5t96.5 215.5 q0 81 -58 123t-207 42h-359z" />
<glyph unicode="C" horiz-adv-x="1480" d="M109 523q0 398 243 692t616 294q226 0 372 -116.5t146 -320.5q0 -17 -2 -44h-192q1 148 -92 226.5t-252 78.5q-280 0 -455.5 -242t-175.5 -547q0 -197 93.5 -302t265.5 -105q182 0 317 104.5t214 299.5h193q-110 -303 -309.5 -441.5t-452.5 -138.5q-247 0 -388 152.5 t-141 409.5z" />
<glyph unicode="D" horiz-adv-x="1474" d="M55 0l312 1470h199h377q247 0 379 -135t132 -374q0 -384 -228 -672.5t-573 -288.5h-400h-198zM290 170h375q251 0 415 229.5t164 527.5q0 183 -88.5 278t-255.5 95h-370z" />
<glyph unicode="E" horiz-adv-x="1331" d="M55 0l312 1470h198h873l-37 -176h-872l-96 -450h805l-37 -176h-805l-105 -492h887l-37 -176h-887h-199z" />
<glyph unicode="F" horiz-adv-x="1224" d="M55 0l312 1470h198h820l-37 -176h-819l-96 -450h721l-37 -176h-721l-142 -668h-199z" />
<glyph unicode="G" horiz-adv-x="1579" d="M110 526q0 384 248.5 683.5t617.5 299.5q235 0 389 -119.5t154 -323.5q0 -18 -2 -42h-192q-5 154 -107 231.5t-270 77.5q-273 0 -453 -245.5t-180 -551.5q0 -190 97.5 -297.5t280.5 -107.5q216 0 367.5 120.5t207.5 364.5h-458l36 170h458h187l-167 -786h-129l-7 190 q-220 -229 -530 -229q-257 0 -402.5 150t-145.5 415z" />
<glyph unicode="H" horiz-adv-x="1495" d="M55 0l312 1470h198l-129 -608h768l129 608h199l-312 -1470h-199l146 686h-768l-146 -686h-198z" />
<glyph unicode="I" horiz-adv-x="529" d="M55 0l312 1470h199l-312 -1470h-199z" />
<glyph unicode="J" horiz-adv-x="1046" d="M5 239q0 46 10 90l31 145h186l-22 -102q-10 -46 -10 -85q0 -83 47.5 -119t125.5 -36q131 0 201 63t96 191l231 1085h199l-228 -1073q-45 -214 -175 -325t-341 -111q-163 0 -257 75.5t-94 201.5z" />
<glyph unicode="K" horiz-adv-x="1377" d="M55 0l312 1470h198l-151 -712l864 712h274l-738 -593l443 -877h-258l-357 737l-279 -221l-110 -516h-198z" />
<glyph unicode="L" d="M55 0l312 1470h198l-275 -1294h746l-37 -176h-749h-195z" />
<glyph unicode="M" horiz-adv-x="1739" d="M55 0l312 1470h192h93l154 -1243h6l680 1243h92h192l-312 -1470h-193l184 868q22 106 83 367h-6l-675 -1235h-196l-150 1233h-6q-52 -261 -74 -365l-184 -868h-192z" />
<glyph unicode="N" horiz-adv-x="1497" d="M55 0l312 1470h235l483 -1187h4l252 1187h193l-312 -1470h-223l-495 1188h-4l-253 -1188h-192z" />
<glyph unicode="O" horiz-adv-x="1593" d="M103 548q0 377 250.5 669t630.5 292q270 0 434.5 -158.5t164.5 -427.5q0 -377 -250.5 -669t-630.5 -292q-270 0 -434.5 158.5t-164.5 427.5zM312 574q0 -196 111 -316t304 -120q274 0 460.5 235t186.5 524q0 196 -111 316t-304 120q-274 0 -460.5 -235t-186.5 -524z" />
<glyph unicode="P" horiz-adv-x="1323" d="M55 0l312 1470h201h441q178 0 279 -84t101 -237q0 -219 -155.5 -373.5t-398.5 -154.5h-449l-132 -621h-199zM422 791h374q181 0 281.5 82.5t100.5 245.5q0 93 -61 137t-184 44h-403z" />
<glyph unicode="Q" horiz-adv-x="1593" d="M103 548q0 377 253 669t633 292q270 0 432 -158.5t162 -427.5q0 -450 -348 -765l157 -154l-125 -119l-178 172q-175 -95 -392 -95q-270 0 -432 158.5t-162 427.5zM312 574q0 -196 108.5 -316t301.5 -120q125 0 233 49l-129 126l128 123l150 -149q270 260 270 610 q0 196 -108.5 316t-301.5 120q-274 0 -463 -235t-189 -524z" />
<glyph unicode="R" horiz-adv-x="1463" d="M55 0l312 1470h202h458q225 0 328 -78.5t103 -230.5q0 -282 -291 -434q126 -53 126 -186q0 -23 -2 -47t-6 -48l-46 -273q-6 -36 -6 -54q0 -28 8 -42q14 -27 44 -44l-7 -33h-245q-3 22 -3 54q0 33 10 113q15 117 36 211q11 50 11 87q0 77 -50.5 121.5t-168.5 44.5h-480 l-134 -631h-199zM424 801h451q174 0 273 89.5t99 234.5q0 85 -54 130t-168 45h-495z" />
<glyph unicode="S" horiz-adv-x="1355" d="M60 337q0 62 20 138h188q-11 -49 -11 -89q0 -121 85.5 -187.5t248.5 -66.5q209 0 330.5 78.5t121.5 223.5q0 67 -42 117t-151 76l-326 79q-155 38 -217.5 111.5t-62.5 180.5q0 230 185.5 371t432.5 141q225 0 353 -97t128 -264q0 -51 -13 -109h-188q7 32 7 67 q0 109 -88 171t-216 62q-162 0 -280 -79.5t-118 -210.5q0 -65 35 -104t104 -56l355 -86q143 -35 224.5 -114t81.5 -203q0 -246 -191.5 -386t-469.5 -140q-248 0 -387 100t-139 276z" />
<glyph unicode="T" horiz-adv-x="1244" d="M190 1294l37 176h498h199h497l-37 -176h-498l-275 -1294h-199l275 1294h-497z" />
<glyph unicode="U" horiz-adv-x="1467" d="M135 361q0 61 14 128l208 981h198l-196 -925q-15 -70 -15 -128q0 -132 79 -206t215 -74q191 0 315.5 106t164.5 298l197 929h199l-202 -954q-56 -264 -247 -409.5t-464 -145.5q-207 0 -336.5 107.5t-129.5 292.5z" />
<glyph unicode="V" horiz-adv-x="1343" d="M232 1470h221l154 -1253h4l682 1253h223l-849 -1470h-210z" />
<glyph unicode="W" horiz-adv-x="1952" d="M246 1470h215l20 -1196h4l584 1196h217l76 -1196h4l528 1196h220l-700 -1470h-208l-77 1219h-4l-599 -1219h-209z" />
<glyph unicode="X" horiz-adv-x="1353" d="M-81 0l689 757l-344 713h245l258 -563l487 563h243l-649 -719l359 -751h-241l-272 604l-530 -604h-245z" />
<glyph unicode="Y" horiz-adv-x="1328" d="M212 1470h231l272 -706l572 706h233l-741 -878l-126 -592h-198l126 592z" />
<glyph unicode="Z" horiz-adv-x="1272" d="M-55 0l35 166l1138 1128h-830l37 176h1089l-36 -172l-1141 -1122h902l-37 -176h-1157z" />
<glyph unicode="[" horiz-adv-x="569" d="M-66 -401l399 1880h161h222l-31 -146h-221l-337 -1589h221l-31 -145h-222h-161z" />
<glyph unicode="\" horiz-adv-x="569" d="M-35 1509h135l504 -1548h-137z" />
<glyph unicode="]" horiz-adv-x="569" d="M-138 -401l31 145h222l337 1589h-222l31 146h222h161l-399 -1880h-161h-222z" />
<glyph unicode="^" horiz-adv-x="961" d="M-29 541l437 868h147l434 -868h-158l-350 704l-350 -704h-160z" />
<glyph unicode="_" d="M0 -151h1139v-100h-1139v100z" />
<glyph unicode="`" horiz-adv-x="680" d="M276 1503h214l86 -289h-137z" />
<glyph unicode="a" horiz-adv-x="1126" d="M16 226q0 144 102 254.5t293 132.5l293 34q91 10 119.5 62t28.5 107q0 67 -52.5 101.5t-148.5 34.5q-250 0 -307 -207h-168q41 173 165 265t338 92q149 0 253 -62t104 -173q0 -31 -7 -64l-131 -617q-3 -12 -3 -21q0 -42 48 -42q23 0 61 8l-28 -131q-57 -20 -107 -20 q-155 0 -155 119q0 16 4 44q-161 -174 -416 -174q-129 0 -207.5 65.5t-78.5 191.5zM211 248q0 -65 41.5 -97t114.5 -32q134 0 250 72.5t139 179.5l37 176q-41 -37 -311 -68q-137 -16 -204 -72t-67 -159z" />
<glyph unicode="b" horiz-adv-x="1157" d="M25 0l312 1470h180l-113 -534h4q150 166 340 166q165 0 260.5 -107t95.5 -281q0 -278 -171.5 -511.5t-430.5 -233.5q-197 0 -274 169h-4l-29 -138h-170zM290 378q0 -116 61.5 -184.5t163.5 -68.5q173 0 285.5 177t112.5 392q0 118 -56.5 182t-161.5 64 q-182 0 -293.5 -179t-111.5 -383z" />
<glyph unicode="c" horiz-adv-x="1050" d="M50 361q0 295 182.5 518t458.5 223q147 0 244.5 -86.5t97.5 -229.5q0 -33 -5 -75h-176v21q1 107 -54 157.5t-152 50.5q-174 0 -286.5 -171t-112.5 -392q0 -120 56 -186t157 -66q110 0 193.5 69.5t129.5 184.5h177q-72 -210 -210.5 -310t-311.5 -100t-280.5 107.5 t-107.5 284.5z" />
<glyph unicode="d" horiz-adv-x="1167" d="M71 385q0 293 166.5 505t407.5 212q205 0 289 -182l6 9l114 541h180l-312 -1470h-170l31 147h-4q-145 -178 -347 -178q-170 0 -265.5 114.5t-95.5 301.5zM254 392q0 -117 55.5 -192t159.5 -75q184 0 290 163.5t106 380.5q0 141 -55 206.5t-159 65.5q-182 0 -289.5 -165 t-107.5 -384z" />
<glyph unicode="e" horiz-adv-x="1135" d="M62 356q0 289 180 517.5t460 228.5q178 0 275.5 -103.5t97.5 -301.5q0 -104 -27 -220h-783q-13 -48 -13 -106q0 -116 60.5 -181t177.5 -65q113 0 204 57.5t128 153.5h183q-66 -169 -207 -268.5t-336 -99.5q-185 0 -292.5 105.5t-107.5 282.5zM296 621h596q7 49 7 83 q0 117 -59.5 176.5t-170.5 59.5q-127 0 -225 -82t-148 -237z" />
<glyph unicode="f" horiz-adv-x="568" d="M62 0l196 922h-147l32 149h147l39 184q25 121 110.5 178.5t218.5 57.5q40 0 81 -4l-34 -161q-33 4 -74 4q-54 0 -85.5 -25t-44.5 -89l-31 -145h181l-32 -149h-181l-196 -922h-180z" />
<glyph unicode="g" horiz-adv-x="1145" d="M-24 -165q0 16 2 37h173q1 -86 53.5 -130t157.5 -44q162 0 250 80t127 265l17 78h-4q-130 -152 -315 -152q-172 0 -270 114t-98 301q0 292 164.5 505t406.5 213q194 0 292 -184h4l32 153h170l-214 -1009q-56 -259 -189 -386.5t-376 -127.5q-182 0 -282.5 72.5 t-100.5 214.5zM252 392q0 -125 58.5 -196t158.5 -71q188 0 291 165.5t103 386.5q0 130 -53.5 196.5t-156.5 66.5q-193 0 -297 -166.5t-104 -381.5z" />
<glyph unicode="h" horiz-adv-x="1130" d="M25 0l312 1470h180l-115 -542h4q161 174 367 174q131 0 211.5 -70.5t80.5 -192.5q0 -52 -12 -110l-155 -729h-181l149 700q11 55 11 97q0 70 -42 106.5t-117 36.5q-146 0 -249.5 -92.5t-139.5 -263.5l-124 -584h-180z" />
<glyph unicode="i" horiz-adv-x="450" d="M25 0l228 1071h180l-228 -1071h-180zM294 1266l43 204h180l-43 -204h-180z" />
<glyph unicode="j" horiz-adv-x="450" d="M-235 -424l33 156h47q77 0 104.5 22t46.5 109l257 1208h180l-262 -1229q-32 -153 -116.5 -212.5t-214.5 -59.5q-36 0 -75 6zM294 1266l43 204h180l-43 -204h-180z" />
<glyph unicode="k" horiz-adv-x="1024" d="M25 0l312 1470h174l-181 -852l548 453h239l-500 -411l297 -660h-216l-232 536l-186 -153l-81 -383h-174z" />
<glyph unicode="l" horiz-adv-x="450" d="M25 0l312 1470h180l-312 -1470h-180z" />
<glyph unicode="m" horiz-adv-x="1699" d="M25 0l228 1071h170l-32 -151h4q162 182 366 182q194 0 243 -174q168 174 364 174q119 0 193.5 -70t74.5 -189q0 -49 -11 -102l-158 -741h-180l147 692q11 51 11 96q0 71 -36.5 111.5t-107.5 40.5q-112 0 -206 -83t-120 -204l-139 -653h-180l158 741q7 34 7 62 q0 66 -35.5 101.5t-99.5 35.5q-139 0 -233 -104.5t-124 -251.5l-124 -584h-180z" />
<glyph unicode="n" horiz-adv-x="1130" d="M25 0l228 1071h170l-32 -151h4q164 182 378 182q135 0 213.5 -70t78.5 -196q0 -48 -12 -107l-155 -729h-181l140 659q15 70 15 120q0 80 -43 120.5t-121 40.5q-145 0 -244.5 -95.5t-134.5 -260.5l-124 -584h-180z" />
<glyph unicode="o" horiz-adv-x="1145" d="M62 382q0 278 178 498.5t459 220.5q184 0 287.5 -115.5t103.5 -296.5q0 -278 -178 -498.5t-459 -220.5q-184 0 -287.5 115.5t-103.5 296.5zM250 399q0 -117 62.5 -195t170.5 -78q181 0 300 165.5t119 380.5q0 117 -62.5 195t-170.5 78q-181 0 -300 -165.5t-119 -380.5z " />
<glyph unicode="p" horiz-adv-x="1157" d="M-65 -424l318 1495h170l-32 -151h4q150 182 354 182q163 0 259 -109.5t96 -282.5q0 -280 -174.5 -510.5t-427.5 -230.5q-182 0 -267 153h-4l-116 -546h-180zM289 383q0 -117 61.5 -187.5t169.5 -70.5q171 0 282 175t111 392q0 120 -55 184t-166 64q-184 0 -293.5 -182.5 t-109.5 -374.5z" />
<glyph unicode="q" horiz-adv-x="1157" d="M71 396q0 277 162.5 491.5t408.5 214.5q211 0 292 -182h4l32 151h170l-318 -1495h-181l114 537h-4q-142 -144 -317 -144q-170 0 -266.5 115.5t-96.5 311.5zM255 402q0 -129 55.5 -203t168.5 -74q175 0 281 158t106 379q0 138 -53.5 208t-165.5 70q-176 0 -284 -163 t-108 -375z" />
<glyph unicode="r" horiz-adv-x="662" d="M25 0l228 1071h170l-38 -178h4q161 209 345 209q29 0 46 -6l-40 -189q-33 2 -68 2q-120 0 -215 -83t-120 -203l-132 -623h-180z" />
<glyph unicode="s" horiz-adv-x="1024" d="M15 252q0 47 13 92h173q-5 -28 -5 -51q0 -77 62 -122t178 -45q126 0 204 44.5t78 134.5q0 53 -34 85.5t-106 51.5l-236 61q-89 23 -141 81.5t-52 146.5q0 167 137 269t340 102q154 0 252.5 -72t98.5 -195q0 -35 -9 -69h-171q4 20 4 42q0 67 -53.5 102.5t-158.5 35.5 t-179.5 -47.5t-74.5 -121.5q0 -51 30.5 -77t84.5 -40l209 -54q134 -34 193 -95.5t59 -154.5q0 -178 -145.5 -282t-351.5 -104q-182 0 -290.5 74.5t-108.5 207.5z" />
<glyph unicode="t" horiz-adv-x="568" d="M98 131q0 35 10 84l150 707h-145l32 149h145l63 299h180l-63 -299h172l-32 -149h-172l-148 -697q-3 -14 -3 -26q0 -29 20 -43.5t68 -14.5h69l-30 -141q-85 -14 -139 -14q-90 0 -133.5 36t-43.5 109z" />
<glyph unicode="u" horiz-adv-x="1122" d="M69 218q0 35 10 83l164 770h180l-151 -711q-10 -49 -10 -85q0 -77 45.5 -113.5t117.5 -36.5q138 0 237.5 93.5t136.5 262.5l126 590h180l-228 -1071h-170l33 156l-3 4q-144 -191 -382 -191q-131 0 -208.5 67t-77.5 182z" />
<glyph unicode="v" horiz-adv-x="1015" d="M130 1071h207l94 -872h4l481 872h206l-635 -1071h-193z" />
<glyph unicode="w" horiz-adv-x="1483" d="M148 1071h194l28 -842h4l381 842h201l35 -842h4l389 842h187l-537 -1071h-187l-46 829h-4l-380 -829h-186z" />
<glyph unicode="x" horiz-adv-x="1023" d="M-88 0l496 555l-250 516h216l182 -377l329 377h221l-478 -526l265 -545h-215l-196 402l-343 -402h-227z" />
<glyph unicode="y" horiz-adv-x="1016" d="M-84 -422l35 161q63 -16 109 -16q53 0 94 34.5t106 147.5l39 65l-163 1101h200l103 -872h4l471 872h200l-667 -1158q-135 -234 -218.5 -292.5t-186.5 -58.5q-66 0 -126 16z" />
<glyph unicode="z" horiz-adv-x="1008" d="M-60 0l30 141l804 781h-588l32 149h829l-32 -147l-795 -774h650l-32 -150h-898z" />
<glyph unicode="{" horiz-adv-x="684" d="M78 479l26 123q68 0 132.5 73.5t88.5 186.5l75 352q25 117 101 191t164 74h137l-28 -133h-90q-51 0 -82 -45t-48 -123l-72 -339q-48 -226 -246 -303v-4q128 -55 128 -205q0 -45 -10 -91l-71 -336q-5 -23 -7.5 -42.5t-2.5 -36.5q0 -89 68 -89h90l-28 -133h-127 q-85 0 -128.5 52.5t-43.5 134.5q0 36 9 77l74 350q11 53 11 94q0 75 -29.5 123.5t-90.5 48.5z" />
<glyph unicode="|" horiz-adv-x="532" d="M193 -39v1548h149v-1548h-149z" />
<glyph unicode="}" horiz-adv-x="684" d="M-109 -401l28 133h90q51 0 82 45t48 123l72 339q48 226 246 303v4q-128 55 -128 205q0 45 10 91l71 336q5 23 7.5 42.5t2.5 36.5q0 89 -68 89h-90l28 133h127q85 0 128.5 -52.5t43.5 -134.5q0 -36 -9 -77l-74 -350q-11 -53 -11 -94q0 -75 29.5 -123.5t90.5 -48.5 l-26 -123q-68 0 -132.5 -73.5t-88.5 -186.5l-75 -352q-25 -117 -101 -191t-164 -74h-137z" />
<glyph unicode="~" horiz-adv-x="1200" d="M54 474q99 184 293 184q97 0 251 -68q82 -38 136 -59.5t128 -21.5q126 0 200 153l83 -118q-98 -184 -293 -184q-99 0 -251 68q-86 39 -140 60t-124 21q-128 0 -200 -153z" />
<glyph unicode="&#xa1;" horiz-adv-x="569" d="M-9 -399l103 485l184 635h100l-86 -635l-103 -485h-198zM259 862l45 209h198l-45 -209h-198z" />
<glyph unicode="&#xa2;" d="M85 361q0 295 185.5 515.5t466.5 220.5q31 0 61 -4l83 183h84l-90 -200q211 -82 211 -294q0 -33 -5 -76h-174q5 168 -103 212l-356 -789q24 -4 50 -4q116 0 205 68t138 181h177q-74 -207 -217 -303.5t-321 -96.5q-51 0 -97 9l-96 -214h-89l107 237q-220 104 -220 355z M275 377q0 -157 99 -221l354 782q-18 2 -38 2q-181 0 -298 -171t-117 -392z" />
<glyph unicode="&#xa3;" d="M-9 119q337 220 337 435q0 41 -15 95h-217l27 129h142q-36 101 -36 200q0 214 155 353t403 139q175 0 287 -91t112 -238q0 -63 -19 -137h-177q12 41 12 93q0 100 -68 159t-170 59q-152 0 -247 -88t-95 -227q0 -83 50 -222h343l-27 -129h-284q2 -18 2 -33 q0 -270 -337 -481l1 -2q148 76 284 76q74 0 174 -36t145 -36q87 0 174 62l74 -133q-128 -99 -279 -99q-75 0 -205.5 46t-217.5 46q-113 0 -258 -82z" />
<glyph unicode="&#xa4;" d="M57 1137l99 98l116 -115q128 105 297 105t297 -105l117 115l98 -98l-112 -111q102 -138 102 -307q0 -170 -102 -309l110 -115l-92 -92l-113 119q-135 -113 -305 -113t-305 113l-112 -119l-93 92l111 115q-102 138 -102 309q0 170 102 307zM217 719q0 -145 104 -256 t248 -111q146 0 249.5 111.5t103.5 255.5q0 146 -104 254t-249 108t-248.5 -108.5t-103.5 -253.5z" />
<glyph unicode="&#xa5;" d="M57 379l24 117h393l37 174h-393l25 116h315l-258 643h201l227 -624l490 624h209l-533 -643h318l-25 -116h-396l-37 -174h396l-24 -117h-396l-81 -379h-180l81 379h-393z" />
<glyph unicode="&#xa6;" horiz-adv-x="532" d="M193 -39v602h149v-602h-149zM193 942v567h149v-567h-149z" />
<glyph unicode="&#xa7;" d="M45 -106q0 61 14 100h180q-8 -36 -8 -68q0 -74 39.5 -118t135.5 -44q91 0 163.5 52.5t72.5 143.5q0 42 -24 77.5t-90 80.5l-263 188q-95 65 -128.5 122.5t-33.5 135.5q0 232 283 393q-58 71 -58 171q0 164 130.5 272.5t313.5 108.5q145 0 230 -75.5t85 -201.5 q0 -59 -14 -97h-174q8 34 8 65q0 70 -43.5 112t-116.5 42q-94 0 -163 -58.5t-69 -135.5q0 -41 24 -76t90 -80l263 -185q95 -64 128.5 -121t33.5 -134q0 -232 -288 -391q63 -72 63 -178q0 -176 -135 -281t-323 -105q-151 0 -238.5 77.5t-87.5 207.5zM285 635q0 -51 24 -92.5 t66 -71.5l306 -217q191 101 191 241q0 51 -24 92t-66 70l-311 219q-186 -101 -186 -241z" />
<glyph unicode="&#xa8;" horiz-adv-x="680" d="M239 1261l44 209h186l-44 -209h-186zM571 1261l44 209h186l-44 -209h-186z" />
<glyph unicode="&#xa9;" horiz-adv-x="1769" d="M100 737q0 326 230.5 549t556.5 223t554 -223t228 -549q0 -327 -228 -551.5t-554 -224.5q-324 0 -555.5 225t-231.5 551zM256 737q0 -269 180.5 -458t450.5 -189q271 0 448.5 188.5t177.5 458.5q0 271 -178 457t-448 186t-450.5 -186t-180.5 -457zM457 739 q0 211 125.5 343.5t322.5 129.5q147 0 254.5 -82t132.5 -239h-137q-18 82 -83.5 134t-164.5 52q-131 0 -213 -90t-82 -246q0 -149 85.5 -246.5t215.5 -97.5q93 0 159.5 52.5t82.5 142.5h139q-26 -146 -131 -238t-250 -92q-201 0 -328.5 134.5t-127.5 342.5z" />
<glyph unicode="&#xaa;" horiz-adv-x="758" d="M94 623l21 98h606l-21 -98h-606zM153 988q0 85 64 151.5t183 79.5l183 20q57 6 75 33.5t18 57.5q0 36 -33 54.5t-92 18.5q-158 0 -191 -109h-112q28 98 106.5 156.5t222.5 58.5q97 0 163.5 -37.5t66.5 -103.5q0 -19 -4 -39l-77 -370q-1 -6 -1 -11q0 -22 30 -22q15 0 39 5 l-17 -88q-40 -14 -75 -14q-99 0 -99 77q0 11 2 23q-115 -100 -266 -100q-87 0 -136.5 40t-49.5 119zM285 1009q0 -38 24.5 -56t75.5 -18q81 0 152 39t86 96l22 98q-25 -22 -191 -40q-85 -9 -127 -37t-42 -82z" />
<glyph unicode="&#xab;" d="M191 473l40 189l375 251l-40 -190l-250 -166l179 -166l-36 -170zM611 473l40 189l375 251l-40 -190l-250 -166l179 -166l-36 -170z" />
<glyph unicode="&#xac;" horiz-adv-x="1200" d="M82 442v150h1036v-592h-150v442h-886z" />
<glyph unicode="&#xad;" horiz-adv-x="682" d="M81 475l39 184h502l-39 -184h-502z" />
<glyph unicode="&#xae;" horiz-adv-x="1769" d="M100 737q0 326 230.5 549t556.5 223t554 -223t228 -549q0 -327 -228 -551.5t-554 -224.5q-324 0 -555.5 225t-231.5 551zM256 737q0 -269 180.5 -458t450.5 -189q271 0 448.5 188.5t177.5 458.5q0 271 -178 457t-448 186t-450.5 -186t-180.5 -457zM588 289v893h348 q307 0 307 -254q0 -213 -226 -246l249 -393h-152l-235 387h-156v-387h-135zM723 791h186q95 0 144 31t49 114q0 60 -44 95.5t-151 35.5h-184v-276z" />
<glyph unicode="&#xaf;" horiz-adv-x="680" d="M180 1274l25 117h642l-25 -117h-642z" />
<glyph unicode="&#xb0;" horiz-adv-x="819" d="M111 1141q0 64 23 118.5t63 94.5t94.5 63t118.5 23t118.5 -23t94.5 -63t63 -94.5t23 -118.5t-23 -118.5t-63 -94.5t-94.5 -63t-118.5 -23t-118.5 23t-94.5 63t-63 94.5t-23 118.5zM209 1141q0 -41 16 -79t43.5 -67.5t64 -47t77.5 -17.5q40 0 76.5 17.5t64 47t43.5 67.5 t16 79q0 40 -16 78.5t-43.5 67.5t-64 47t-76.5 18q-41 0 -77.5 -18t-64 -47t-43.5 -67.5t-16 -78.5z" />
<glyph unicode="&#xb1;" horiz-adv-x="1200" d="M82 0v150h1036v-150h-1036zM82 557v150h444v329h150v-329h442v-150h-442v-330h-150v330h-444z" />
<glyph unicode="&#xb2;" horiz-adv-x="812" d="M156 875q53 235 289 354l178 86q94 44 133 89.5t39 100.5q0 59 -39 92.5t-107 33.5q-176 0 -224 -192h-125q63 311 369 311q126 0 197.5 -60t71.5 -156q0 -95 -53 -169t-191 -139l-175 -83q-133 -60 -183 -143h494l-27 -125h-647z" />
<glyph unicode="&#xb3;" horiz-adv-x="781" d="M173 1069q0 35 9 74h137q-7 -28 -7 -51q0 -56 39.5 -88t118.5 -32q99 0 160 50.5t61 134.5q0 58 -40.5 85.5t-137.5 27.5q-22 0 -51 -1l20 108q28 -3 57 -3q87 0 143 42.5t56 108.5q0 48 -32.5 76.5t-98.5 28.5q-172 0 -205 -166h-132q57 285 358 285q118 0 187.5 -52 t69.5 -142q0 -151 -162 -220v-2q115 -39 115 -165q0 -138 -109 -226.5t-276 -88.5q-129 0 -204.5 60.5t-75.5 155.5z" />
<glyph unicode="&#xb4;" horiz-adv-x="680" d="M399 1214l208 289h214l-285 -289h-137z" />
<glyph unicode="&#xb5;" horiz-adv-x="1190" d="M135 -424v1495h180v-647q0 -137 69 -213t189 -76q127 0 190.5 76t63.5 211v649h181v-815q0 -72 19.5 -94.5t59.5 -22.5q29 0 56 4v-149q-53 -14 -111 -14q-164 0 -192 145q-109 -156 -277 -156q-80 0 -148.5 40t-95.5 97l-4 -2v-528h-180z" />
<glyph unicode="&#xb6;" horiz-adv-x="1100" d="M146 1004q0 211 151 334.5t382 131.5h33h115h244h149l-387 -1824h-150l362 1702h-243l-362 -1702h-150l225 1059h-5q-159 0 -261.5 81t-102.5 218z" />
<glyph unicode="&#xb7;" horiz-adv-x="569" d="M164 450l46 217h213l-46 -217h-213z" />
<glyph unicode="&#xb8;" horiz-adv-x="680" d="M-96 -416l46 82q61 -31 126 -31q61 0 98.5 28.5t37.5 72.5q0 30 -25 47.5t-59 17.5q-29 0 -83 -16l-26 39l169 176h96l-122 -127q40 8 65 8q70 0 106.5 -31t36.5 -84q0 -91 -78.5 -159t-206.5 -68q-96 0 -181 45z" />
<glyph unicode="&#xb9;" horiz-adv-x="646" d="M263 1482l20 95q128 5 185.5 37.5t99.5 125.5h117l-184 -865h-146l129 607h-221z" />
<glyph unicode="&#xba;" horiz-adv-x="748" d="M94 623l21 98h606l-21 -98h-606zM176 1082q0 163 116 295t299 132q120 0 187.5 -69t67.5 -178q0 -168 -112 -300.5t-295 -132.5q-119 0 -191 70t-72 183zM315 1091q0 -65 37.5 -110t102.5 -45q109 0 180 94.5t71 217.5q0 65 -37 110t-102 45q-109 0 -180.5 -94.5 t-71.5 -217.5z" />
<glyph unicode="&#xbb;" d="M137 221l40 190l251 166l-180 166l36 170l269 -251l-40 -189zM557 221l40 190l251 166l-180 166l36 170l269 -251l-40 -189z" />
<glyph unicode="&#xbc;" horiz-adv-x="1654" d="M127 -41l1238 1493h124l-1238 -1493h-124zM193 1182l20 95q128 5 185.5 37.5t99.5 125.5h117l-184 -865h-146l129 607h-221zM820 194l26 122l534 549h136l-118 -553h137l-25 -118h-137l-41 -193h-131l41 193h-422zM977 312h290l82 383h-4z" />
<glyph unicode="&#xbd;" horiz-adv-x="1702" d="M127 -41l1238 1493h124l-1238 -1493h-124zM193 1182l20 95q128 5 185.5 37.5t99.5 125.5h117l-184 -865h-146l129 607h-221zM853 1q53 235 289 354l178 86q94 44 133 89.5t39 100.5q0 59 -39 92.5t-107 33.5q-176 0 -224 -192h-125q63 311 369 311q126 0 197.5 -60 t71.5 -156q0 -95 -53 -169t-191 -139l-175 -83q-133 -60 -183 -143h494l-27 -125h-647z" />
<glyph unicode="&#xbe;" horiz-adv-x="1789" d="M103 769q0 35 9 74h137q-7 -28 -7 -51q0 -56 39.5 -88t118.5 -32q99 0 160 50.5t61 134.5q0 58 -40.5 85.5t-137.5 27.5q-22 0 -51 -1l20 108q28 -3 57 -3q87 0 143 42.5t56 108.5q0 48 -32.5 76.5t-98.5 28.5q-172 0 -205 -166h-132q57 285 358 285q118 0 187.5 -52 t69.5 -142q0 -151 -162 -220v-2q115 -39 115 -165q0 -138 -109 -226.5t-276 -88.5q-129 0 -204.5 60.5t-75.5 155.5zM262 -41l1238 1493h124l-1238 -1493h-124zM955 194l26 122l534 549h136l-118 -553h137l-25 -118h-137l-41 -193h-131l41 193h-422zM1112 312h290l82 383h-4 z" />
<glyph unicode="&#xbf;" d="M11 -91q0 97 43.5 182t228.5 234q154 125 193.5 190.5t65.5 184.5h178q-30 -137 -76.5 -221t-225.5 -229q-147 -119 -181.5 -176.5t-34.5 -139.5q0 -88 55.5 -140t146.5 -52q147 0 231.5 82t107.5 241h180q-34 -227 -179 -353t-364 -126q-158 0 -263.5 90.5t-105.5 232.5 zM562 866l44 209h198l-44 -209h-198z" />
<glyph unicode="&#xc0;" horiz-adv-x="1365" d="M-85 0l865 1470h225l220 -1470h-217l-54 428h-590l-245 -428h-204zM463 604h456l-79 647h-4zM700 1893h214l86 -289h-137z" />
<glyph unicode="&#xc1;" horiz-adv-x="1365" d="M-85 0l865 1470h225l220 -1470h-217l-54 428h-590l-245 -428h-204zM463 604h456l-79 647h-4zM833 1604l208 289h214l-285 -289h-137z" />
<glyph unicode="&#xc2;" horiz-adv-x="1365" d="M-85 0l865 1470h225l220 -1470h-217l-54 428h-590l-245 -428h-204zM463 604h456l-79 647h-4zM625 1604l264 289h190l142 -289h-160l-94 191l-176 -191h-166z" />
<glyph unicode="&#xc3;" horiz-adv-x="1365" d="M-85 0l865 1470h225l220 -1470h-217l-54 428h-590l-245 -428h-204zM463 604h456l-79 647h-4zM592 1631q35 109 98.5 164t153.5 55q51 0 99 -18l107 -41q43 -16 66 -16q85 2 116 94h101q-30 -103 -96 -163.5t-147 -60.5q-42 0 -103 21l-94 34q-59 21 -91 21 q-75 0 -112 -90h-98z" />
<glyph unicode="&#xc4;" horiz-adv-x="1365" d="M-85 0l865 1470h225l220 -1470h-217l-54 428h-590l-245 -428h-204zM463 604h456l-79 647h-4zM673 1651l44 209h186l-44 -209h-186zM1005 1651l44 209h186l-44 -209h-186z" />
<glyph unicode="&#xc5;" horiz-adv-x="1365" d="M-85 0l865 1470h225l220 -1470h-217l-54 428h-590l-245 -428h-204zM463 604h456l-79 647h-4zM760 1710q0 94 68 161t160 67q67 0 112.5 -41t45.5 -107q0 -92 -67 -160.5t-161 -68.5q-72 0 -115 41t-43 108zM845 1727q0 -37 24.5 -60.5t63.5 -23.5q51 0 90 40t39 89 q0 37 -25.5 60.5t-63.5 23.5q-51 0 -89.5 -39.5t-38.5 -89.5z" />
<glyph unicode="&#xc6;" horiz-adv-x="2027" d="M-95 0l910 1470h187h135h194h803l-37 -176h-798l-96 -450h729l-37 -176h-729l-105 -492h813l-37 -176h-814h-198l91 428h-543l-253 -428h-215zM482 604h471l147 690h-199z" />
<glyph unicode="&#xc7;" horiz-adv-x="1480" d="M109 523q0 398 248 692t616 294q226 0 372 -116.5t146 -320.5q0 -17 -2 -44h-192q1 148 -92 226.5t-252 78.5q-275 0 -455.5 -242t-180.5 -547q0 -197 93.5 -302t265.5 -105q182 0 317 104.5t214 299.5h193q-110 -303 -300.5 -435t-415.5 -143l-86 -90q40 8 65 8 q70 0 106.5 -31t36.5 -84q0 -91 -78.5 -159t-206.5 -68q-96 0 -181 45l46 82q61 -31 126 -31q61 0 98.5 28.5t37.5 72.5q0 30 -25 47.5t-59 17.5q-29 0 -83 -16l-26 39l133 139q-212 14 -345.5 158.5t-133.5 401.5z" />
<glyph unicode="&#xc8;" horiz-adv-x="1331" d="M55 0l312 1470h198h873l-37 -176h-872l-96 -450h805l-37 -176h-805l-105 -492h887l-37 -176h-887h-199zM713 1893h214l86 -289h-137z" />
<glyph unicode="&#xc9;" horiz-adv-x="1331" d="M55 0l312 1470h198h873l-37 -176h-872l-96 -450h805l-37 -176h-805l-105 -492h887l-37 -176h-887h-199zM835 1604l208 289h214l-285 -289h-137z" />
<glyph unicode="&#xca;" horiz-adv-x="1331" d="M55 0l312 1470h198h873l-37 -176h-872l-96 -450h805l-37 -176h-805l-105 -492h887l-37 -176h-887h-199zM628 1604l264 289h190l142 -289h-160l-94 191l-176 -191h-166z" />
<glyph unicode="&#xcb;" horiz-adv-x="1331" d="M55 0l312 1470h198h873l-37 -176h-872l-96 -450h805l-37 -176h-805l-105 -492h887l-37 -176h-887h-199zM676 1651l44 209h186l-44 -209h-186zM1008 1651l44 209h186l-44 -209h-186z" />
<glyph unicode="&#xcc;" horiz-adv-x="529" d="M55 0l312 1470h199l-312 -1470h-199zM284 1893h214l86 -289h-137z" />
<glyph unicode="&#xcd;" horiz-adv-x="529" d="M55 0l312 1470h199l-312 -1470h-199zM407 1604l208 289h214l-285 -289h-137z" />
<glyph unicode="&#xce;" horiz-adv-x="529" d="M55 0l312 1470h199l-312 -1470h-199zM199 1604l264 289h190l142 -289h-160l-94 191l-176 -191h-166z" />
<glyph unicode="&#xcf;" horiz-adv-x="529" d="M55 0l312 1470h199l-312 -1470h-199zM245 1651l44 209h186l-44 -209h-186zM577 1651l44 209h186l-44 -209h-186z" />
<glyph unicode="&#xd0;" horiz-adv-x="1495" d="M53 673l35 166h165l134 631h202h374q247 0 379 -135t132 -374q0 -384 -228 -672.5t-573 -288.5h-396h-202l143 673h-165zM310 170h375q251 0 415 229.5t164 527.5q0 183 -88.5 278t-255.5 95h-370l-98 -461h424l-35 -166h-424z" />
<glyph unicode="&#xd1;" horiz-adv-x="1497" d="M55 0l312 1470h235l483 -1187h4l252 1187h193l-312 -1470h-223l-495 1188h-4l-253 -1188h-192zM650 1631q35 109 98.5 164t153.5 55q51 0 99 -18l107 -41q43 -16 66 -16q85 2 116 94h101q-30 -103 -96 -163.5t-147 -60.5q-42 0 -103 21l-94 34q-59 21 -91 21 q-75 0 -112 -90h-98z" />
<glyph unicode="&#xd2;" horiz-adv-x="1593" d="M103 548q0 377 250.5 669t630.5 292q270 0 434.5 -158.5t164.5 -427.5q0 -377 -250.5 -669t-630.5 -292q-270 0 -434.5 158.5t-164.5 427.5zM312 574q0 -196 111 -316t304 -120q274 0 460.5 235t186.5 524q0 196 -111 316t-304 120q-274 0 -460.5 -235t-186.5 -524z M815 1893h214l86 -289h-137z" />
<glyph unicode="&#xd3;" horiz-adv-x="1593" d="M103 548q0 377 250.5 669t630.5 292q270 0 434.5 -158.5t164.5 -427.5q0 -377 -250.5 -669t-630.5 -292q-270 0 -434.5 158.5t-164.5 427.5zM312 574q0 -196 111 -316t304 -120q274 0 460.5 235t186.5 524q0 196 -111 316t-304 120q-274 0 -460.5 -235t-186.5 -524z M938 1604l208 289h214l-285 -289h-137z" />
<glyph unicode="&#xd4;" horiz-adv-x="1593" d="M103 548q0 377 250.5 669t630.5 292q270 0 434.5 -158.5t164.5 -427.5q0 -377 -250.5 -669t-630.5 -292q-270 0 -434.5 158.5t-164.5 427.5zM312 574q0 -196 111 -316t304 -120q274 0 460.5 235t186.5 524q0 196 -111 316t-304 120q-274 0 -460.5 -235t-186.5 -524z M730 1604l264 289h190l142 -289h-160l-94 191l-176 -191h-166z" />
<glyph unicode="&#xd5;" horiz-adv-x="1593" d="M103 548q0 377 250.5 669t630.5 292q270 0 434.5 -158.5t164.5 -427.5q0 -377 -250.5 -669t-630.5 -292q-270 0 -434.5 158.5t-164.5 427.5zM312 574q0 -196 111 -316t304 -120q274 0 460.5 235t186.5 524q0 196 -111 316t-304 120q-274 0 -460.5 -235t-186.5 -524z M697 1631q35 109 98.5 164t153.5 55q51 0 99 -18l107 -41q43 -16 66 -16q85 2 116 94h101q-30 -103 -96 -163.5t-147 -60.5q-42 0 -103 21l-94 34q-59 21 -91 21q-75 0 -112 -90h-98z" />
<glyph unicode="&#xd6;" horiz-adv-x="1593" d="M103 548q0 377 250.5 669t630.5 292q270 0 434.5 -158.5t164.5 -427.5q0 -377 -250.5 -669t-630.5 -292q-270 0 -434.5 158.5t-164.5 427.5zM312 574q0 -196 111 -316t304 -120q274 0 460.5 235t186.5 524q0 196 -111 316t-304 120q-274 0 -460.5 -235t-186.5 -524z M778 1651l44 209h186l-44 -209h-186zM1110 1651l44 209h186l-44 -209h-186z" />
<glyph unicode="&#xd7;" horiz-adv-x="1200" d="M82 104l414 414l-414 414l106 104l412 -411l414 411l104 -104l-411 -414l411 -414l-104 -104l-414 412l-414 -412z" />
<glyph unicode="&#xd8;" horiz-adv-x="1593" d="M-22 18l215 190q-90 139 -90 340q0 377 253 669t633 292q293 0 460 -189l214 189l51 -61l-217 -192q86 -137 86 -333q0 -377 -253 -669t-633 -292q-290 0 -456 183l-209 -184zM312 574q0 -126 45 -221l935 827q-114 153 -328 153q-274 0 -463 -235t-189 -524zM398 284 q111 -146 324 -146q274 0 463 235t189 524q0 121 -42 213z" />
<glyph unicode="&#xd9;" horiz-adv-x="1467" d="M135 361q0 61 14 128l208 981h198l-196 -925q-15 -70 -15 -128q0 -132 79 -206t215 -74q191 0 315.5 106t164.5 298l197 929h199l-202 -954q-56 -264 -247 -409.5t-464 -145.5q-207 0 -336.5 107.5t-129.5 292.5zM764 1893h214l86 -289h-137z" />
<glyph unicode="&#xda;" horiz-adv-x="1467" d="M135 361q0 61 14 128l208 981h198l-196 -925q-15 -70 -15 -128q0 -132 79 -206t215 -74q191 0 315.5 106t164.5 298l197 929h199l-202 -954q-56 -264 -247 -409.5t-464 -145.5q-207 0 -336.5 107.5t-129.5 292.5zM887 1604l208 289h214l-285 -289h-137z" />
<glyph unicode="&#xdb;" horiz-adv-x="1467" d="M135 361q0 61 14 128l208 981h198l-196 -925q-15 -70 -15 -128q0 -132 79 -206t215 -74q191 0 315.5 106t164.5 298l197 929h199l-202 -954q-56 -264 -247 -409.5t-464 -145.5q-207 0 -336.5 107.5t-129.5 292.5zM679 1604l264 289h190l142 -289h-160l-94 191l-176 -191 h-166z" />
<glyph unicode="&#xdc;" horiz-adv-x="1467" d="M135 361q0 61 14 128l208 981h198l-196 -925q-15 -70 -15 -128q0 -132 79 -206t215 -74q191 0 315.5 106t164.5 298l197 929h199l-202 -954q-56 -264 -247 -409.5t-464 -145.5q-207 0 -336.5 107.5t-129.5 292.5zM727 1651l44 209h186l-44 -209h-186zM1059 1651l44 209 h186l-44 -209h-186z" />
<glyph unicode="&#xdd;" horiz-adv-x="1328" d="M212 1470h231l272 -706l572 706h233l-741 -878l-126 -592h-198l126 592zM804 1604l208 289h214l-285 -289h-137z" />
<glyph unicode="&#xde;" horiz-adv-x="1323" d="M55 0l312 1470h198l-50 -243h443q178 0 279 -84t101 -237q0 -219 -155.5 -373.5t-398.5 -154.5h-449l-81 -378h-199zM371 548h374q181 0 281.5 82.5t100.5 245.5q0 93 -61 137t-184 44h-403z" />
<glyph unicode="&#xdf;" horiz-adv-x="1232" d="M20 0l232 1090q37 181 184 291q146 110 358 110q188 0 303 -82q116 -83 116 -225q0 -244 -257 -374q196 -90 196 -298q0 -227 -174.5 -384.5t-424.5 -157.5q-69 0 -138 14l32 154q43 -7 91 -7q201 0 311.5 97.5t110.5 246.5q0 136 -73 192.5t-220 56.5q-41 0 -87 -7 l35 162q16 -2 33 -3.5t35 -1.5q143 0 243 70q101 71 101 198q0 96 -71 144.5t-195 48.5q-136 0 -222 -71t-117 -220l-222 -1044h-180z" />
<glyph unicode="&#xe0;" horiz-adv-x="1126" d="M16 226q0 144 102 254.5t293 132.5l293 34q91 10 119.5 62t28.5 107q0 67 -52.5 101.5t-148.5 34.5q-250 0 -307 -207h-168q41 173 165 265t338 92q149 0 253 -62t104 -173q0 -31 -7 -64l-131 -617q-3 -12 -3 -21q0 -42 48 -42q23 0 61 8l-28 -131q-57 -20 -107 -20 q-155 0 -155 119q0 16 4 44q-161 -174 -416 -174q-129 0 -207.5 65.5t-78.5 191.5zM211 248q0 -65 41.5 -97t114.5 -32q134 0 250 72.5t139 179.5l37 176q-41 -37 -311 -68q-137 -16 -204 -72t-67 -159zM502 1503h214l86 -289h-137z" />
<glyph unicode="&#xe1;" horiz-adv-x="1126" d="M16 226q0 144 102 254.5t293 132.5l293 34q91 10 119.5 62t28.5 107q0 67 -52.5 101.5t-148.5 34.5q-250 0 -307 -207h-168q41 173 165 265t338 92q149 0 253 -62t104 -173q0 -31 -7 -64l-131 -617q-3 -12 -3 -21q0 -42 48 -42q23 0 61 8l-28 -131q-57 -20 -107 -20 q-155 0 -155 119q0 16 4 44q-161 -174 -416 -174q-129 0 -207.5 65.5t-78.5 191.5zM211 248q0 -65 41.5 -97t114.5 -32q134 0 250 72.5t139 179.5l37 176q-41 -37 -311 -68q-137 -16 -204 -72t-67 -159zM625 1214l208 289h214l-285 -289h-137z" />
<glyph unicode="&#xe2;" horiz-adv-x="1126" d="M16 226q0 144 102 254.5t293 132.5l293 34q91 10 119.5 62t28.5 107q0 67 -52.5 101.5t-148.5 34.5q-250 0 -307 -207h-168q41 173 165 265t338 92q149 0 253 -62t104 -173q0 -31 -7 -64l-131 -617q-3 -12 -3 -21q0 -42 48 -42q23 0 61 8l-28 -131q-57 -20 -107 -20 q-155 0 -155 119q0 16 4 44q-161 -174 -416 -174q-129 0 -207.5 65.5t-78.5 191.5zM211 248q0 -65 41.5 -97t114.5 -32q134 0 250 72.5t139 179.5l37 176q-41 -37 -311 -68q-137 -16 -204 -72t-67 -159zM417 1214l264 289h190l142 -289h-160l-94 191l-176 -191h-166z" />
<glyph unicode="&#xe3;" horiz-adv-x="1126" d="M16 226q0 144 102 254.5t293 132.5l293 34q91 10 119.5 62t28.5 107q0 67 -52.5 101.5t-148.5 34.5q-250 0 -307 -207h-168q41 173 165 265t338 92q149 0 253 -62t104 -173q0 -31 -7 -64l-131 -617q-3 -12 -3 -21q0 -42 48 -42q23 0 61 8l-28 -131q-57 -20 -107 -20 q-155 0 -155 119q0 16 4 44q-161 -174 -416 -174q-129 0 -207.5 65.5t-78.5 191.5zM211 248q0 -65 41.5 -97t114.5 -32q134 0 250 72.5t139 179.5l37 176q-41 -37 -311 -68q-137 -16 -204 -72t-67 -159zM384 1241q35 109 98.5 164t153.5 55q51 0 99 -18l107 -41 q43 -16 66 -16q85 2 116 94h101q-30 -103 -96 -163.5t-147 -60.5q-42 0 -103 21l-94 34q-59 21 -91 21q-75 0 -112 -90h-98z" />
<glyph unicode="&#xe4;" horiz-adv-x="1126" d="M16 226q0 144 102 254.5t293 132.5l293 34q91 10 119.5 62t28.5 107q0 67 -52.5 101.5t-148.5 34.5q-250 0 -307 -207h-168q41 173 165 265t338 92q149 0 253 -62t104 -173q0 -31 -7 -64l-131 -617q-3 -12 -3 -21q0 -42 48 -42q23 0 61 8l-28 -131q-57 -20 -107 -20 q-155 0 -155 119q0 16 4 44q-161 -174 -416 -174q-129 0 -207.5 65.5t-78.5 191.5zM211 248q0 -65 41.5 -97t114.5 -32q134 0 250 72.5t139 179.5l37 176q-41 -37 -311 -68q-137 -16 -204 -72t-67 -159zM465 1261l44 209h186l-44 -209h-186zM797 1261l44 209h186l-44 -209 h-186z" />
<glyph unicode="&#xe5;" horiz-adv-x="1126" d="M16 226q0 144 102 254.5t293 132.5l293 34q91 10 119.5 62t28.5 107q0 67 -52.5 101.5t-148.5 34.5q-250 0 -307 -207h-168q41 173 165 265t338 92q149 0 253 -62t104 -173q0 -31 -7 -64l-131 -617q-3 -12 -3 -21q0 -42 48 -42q23 0 61 8l-28 -131q-57 -20 -107 -20 q-155 0 -155 119q0 16 4 44q-161 -174 -416 -174q-129 0 -207.5 65.5t-78.5 191.5zM211 248q0 -65 41.5 -97t114.5 -32q134 0 250 72.5t139 179.5l37 176q-41 -37 -311 -68q-137 -16 -204 -72t-67 -159zM552 1320q0 94 68 161t160 67q67 0 112.5 -41t45.5 -107 q0 -92 -67 -160.5t-161 -68.5q-72 0 -115 41t-43 108zM637 1337q0 -37 24.5 -60.5t63.5 -23.5q51 0 90 40t39 89q0 37 -25.5 60.5t-63.5 23.5q-51 0 -89.5 -39.5t-38.5 -89.5z" />
<glyph unicode="&#xe6;" horiz-adv-x="1814" d="M16 226q0 144 102 254t293 132l293 34q91 10 119.5 62.5t28.5 107.5q0 67 -52.5 101.5t-148.5 34.5q-250 0 -307 -207h-168q41 173 165 265t338 92q250 0 323 -155q162 155 379 155q178 0 275.5 -103.5t97.5 -301.5q0 -104 -27 -220h-783q-13 -48 -13 -106 q0 -116 60.5 -181t177.5 -65q113 0 204 57.5t128 153.5h183q-66 -169 -207 -268.5t-336 -99.5q-284 0 -361 219q-204 -218 -478 -218q-129 0 -207.5 65.5t-78.5 191.5zM209 248q0 -65 42.5 -97t115.5 -32q134 0 250 72.5t139 179.5l37 176q-41 -37 -311 -68 q-137 -16 -205 -72t-68 -159zM975 621h596q7 49 7 83q0 117 -59.5 176.5t-170.5 59.5q-127 0 -225 -82t-148 -237z" />
<glyph unicode="&#xe7;" horiz-adv-x="1050" d="M50 361q0 295 182.5 518t458.5 223q147 0 244.5 -86.5t97.5 -229.5q0 -33 -5 -75h-176v21q1 107 -54 157.5t-152 50.5q-174 0 -286.5 -171t-112.5 -392q0 -120 56 -186t157 -66q110 0 193.5 69.5t129.5 184.5h177q-72 -210 -207.5 -307.5t-298.5 -102.5l-92 -96 q40 8 65 8q70 0 106.5 -31t36.5 -84q0 -91 -78.5 -159t-206.5 -68q-96 0 -181 45l46 82q61 -31 126 -31q61 0 98.5 28.5t37.5 72.5q0 30 -25 47.5t-59 17.5q-29 0 -83 -16l-26 39l144 151q-122 18 -217.5 113.5t-95.5 272.5z" />
<glyph unicode="&#xe8;" horiz-adv-x="1135" d="M62 356q0 289 180 517.5t460 228.5q178 0 275.5 -103.5t97.5 -301.5q0 -104 -27 -220h-783q-13 -48 -13 -106q0 -116 60.5 -181t177.5 -65q113 0 204 57.5t128 153.5h183q-66 -169 -207 -268.5t-336 -99.5q-185 0 -292.5 105.5t-107.5 282.5zM296 621h596q7 49 7 83 q0 117 -59.5 176.5t-170.5 59.5q-127 0 -225 -82t-148 -237zM526 1503h214l86 -289h-137z" />
<glyph unicode="&#xe9;" horiz-adv-x="1135" d="M62 356q0 289 180 517.5t460 228.5q178 0 275.5 -103.5t97.5 -301.5q0 -104 -27 -220h-783q-13 -48 -13 -106q0 -116 60.5 -181t177.5 -65q113 0 204 57.5t128 153.5h183q-66 -169 -207 -268.5t-336 -99.5q-185 0 -292.5 105.5t-107.5 282.5zM296 621h596q7 49 7 83 q0 117 -59.5 176.5t-170.5 59.5q-127 0 -225 -82t-148 -237zM649 1214l208 289h214l-285 -289h-137z" />
<glyph unicode="&#xea;" horiz-adv-x="1135" d="M62 356q0 289 180 517.5t460 228.5q178 0 275.5 -103.5t97.5 -301.5q0 -104 -27 -220h-783q-13 -48 -13 -106q0 -116 60.5 -181t177.5 -65q113 0 204 57.5t128 153.5h183q-66 -169 -207 -268.5t-336 -99.5q-185 0 -292.5 105.5t-107.5 282.5zM296 621h596q7 49 7 83 q0 117 -59.5 176.5t-170.5 59.5q-127 0 -225 -82t-148 -237zM441 1214l264 289h190l142 -289h-160l-94 191l-176 -191h-166z" />
<glyph unicode="&#xeb;" horiz-adv-x="1135" d="M62 356q0 289 180 517.5t460 228.5q178 0 275.5 -103.5t97.5 -301.5q0 -104 -27 -220h-783q-13 -48 -13 -106q0 -116 60.5 -181t177.5 -65q113 0 204 57.5t128 153.5h183q-66 -169 -207 -268.5t-336 -99.5q-185 0 -292.5 105.5t-107.5 282.5zM296 621h596q7 49 7 83 q0 117 -59.5 176.5t-170.5 59.5q-127 0 -225 -82t-148 -237zM489 1261l44 209h186l-44 -209h-186zM821 1261l44 209h186l-44 -209h-186z" />
<glyph unicode="&#xec;" horiz-adv-x="480" d="M55 0l228 1071h180l-228 -1071h-180zM193 1503h214l86 -289h-137z" />
<glyph unicode="&#xed;" horiz-adv-x="480" d="M25 0l228 1071h180l-228 -1071h-180zM286 1214l208 289h214l-285 -289h-137z" />
<glyph unicode="&#xee;" horiz-adv-x="564" d="M80 0l228 1071h180l-228 -1071h-180zM133 1214l264 289h190l142 -289h-160l-94 191l-176 -191h-166z" />
<glyph unicode="&#xef;" horiz-adv-x="561" d="M79 0l228 1071h180l-228 -1071h-180zM180 1261l44 209h186l-44 -209h-186zM512 1261l44 209h186l-44 -209h-186z" />
<glyph unicode="&#xf0;" horiz-adv-x="1146" d="M53 379q0 253 168 459t420 206q157 0 265 -120l5 5q-44 191 -164 320l-284 -128l-67 86l269 118q-71 66 -163 111l168 73q93 -43 164 -109l239 104l79 -80l-246 -108q193 -222 193 -524q0 -332 -172.5 -577.5t-456.5 -245.5q-185 0 -301 111t-116 299zM242 399 q0 -121 64.5 -197.5t182.5 -76.5q170 0 284 152t114 337q0 129 -62.5 201.5t-185.5 72.5q-171 0 -284 -146t-113 -343z" />
<glyph unicode="&#xf1;" horiz-adv-x="1130" d="M25 0l228 1071h170l-32 -151h4q164 182 378 182q135 0 213.5 -70t78.5 -196q0 -48 -12 -107l-155 -729h-181l140 659q15 70 15 120q0 80 -43 120.5t-121 40.5q-145 0 -244.5 -95.5t-134.5 -260.5l-124 -584h-180zM400 1241q35 109 98.5 164t153.5 55q51 0 99 -18l107 -41 q43 -16 66 -16q85 2 116 94h101q-30 -103 -96 -163.5t-147 -60.5q-42 0 -103 21l-94 34q-59 21 -91 21q-75 0 -112 -90h-98z" />
<glyph unicode="&#xf2;" horiz-adv-x="1145" d="M62 382q0 278 178 498.5t459 220.5q184 0 287.5 -115.5t103.5 -296.5q0 -278 -178 -498.5t-459 -220.5q-184 0 -287.5 115.5t-103.5 296.5zM250 399q0 -117 62.5 -195t170.5 -78q181 0 300 165.5t119 380.5q0 117 -62.5 195t-170.5 78q-181 0 -300 -165.5t-119 -380.5z M510 1503h214l86 -289h-137z" />
<glyph unicode="&#xf3;" horiz-adv-x="1145" d="M62 382q0 278 178 498.5t459 220.5q184 0 287.5 -115.5t103.5 -296.5q0 -278 -178 -498.5t-459 -220.5q-184 0 -287.5 115.5t-103.5 296.5zM250 399q0 -117 62.5 -195t170.5 -78q181 0 300 165.5t119 380.5q0 117 -62.5 195t-170.5 78q-181 0 -300 -165.5t-119 -380.5z M633 1214l208 289h214l-285 -289h-137z" />
<glyph unicode="&#xf4;" horiz-adv-x="1145" d="M62 382q0 278 178 498.5t459 220.5q184 0 287.5 -115.5t103.5 -296.5q0 -278 -178 -498.5t-459 -220.5q-184 0 -287.5 115.5t-103.5 296.5zM250 399q0 -117 62.5 -195t170.5 -78q181 0 300 165.5t119 380.5q0 117 -62.5 195t-170.5 78q-181 0 -300 -165.5t-119 -380.5z M425 1214l264 289h190l142 -289h-160l-94 191l-176 -191h-166z" />
<glyph unicode="&#xf5;" horiz-adv-x="1145" d="M62 382q0 278 178 498.5t459 220.5q184 0 287.5 -115.5t103.5 -296.5q0 -278 -178 -498.5t-459 -220.5q-184 0 -287.5 115.5t-103.5 296.5zM250 399q0 -117 62.5 -195t170.5 -78q181 0 300 165.5t119 380.5q0 117 -62.5 195t-170.5 78q-181 0 -300 -165.5t-119 -380.5z M392 1241q35 109 98.5 164t153.5 55q51 0 99 -18l107 -41q43 -16 66 -16q85 2 116 94h101q-30 -103 -96 -163.5t-147 -60.5q-42 0 -103 21l-94 34q-59 21 -91 21q-75 0 -112 -90h-98z" />
<glyph unicode="&#xf6;" horiz-adv-x="1145" d="M62 382q0 278 178 498.5t459 220.5q184 0 287.5 -115.5t103.5 -296.5q0 -278 -178 -498.5t-459 -220.5q-184 0 -287.5 115.5t-103.5 296.5zM250 399q0 -117 62.5 -195t170.5 -78q181 0 300 165.5t119 380.5q0 117 -62.5 195t-170.5 78q-181 0 -300 -165.5t-119 -380.5z M470 1261l44 209h186l-44 -209h-186zM802 1261l44 209h186l-44 -209h-186z" />
<glyph unicode="&#xf7;" horiz-adv-x="1200" d="M82 442v150h1036v-150h-1036zM461 101q0 57 42 98t97 41q56 0 97.5 -41t41.5 -98q0 -53 -41.5 -96t-97.5 -43q-55 0 -97 41.5t-42 97.5zM461 934q0 57 42 98t97 41q56 0 97.5 -41t41.5 -98q0 -53 -41.5 -96t-97.5 -43q-55 0 -97 41.5t-42 97.5z" />
<glyph unicode="&#xf8;" horiz-adv-x="1145" d="M-51 8l164 150q-51 96 -51 224q0 278 178 498.5t459 220.5q193 0 302 -133l162 148l53 -53l-174 -159q48 -92 48 -215q0 -278 -178 -498.5t-459 -220.5q-192 0 -297 126l-155 -141zM250 399q0 -56 14 -103l595 543q-63 106 -190 106q-181 0 -300 -165.5t-119 -380.5z M297 225q66 -99 186 -99q181 0 300 165.5t119 380.5q0 50 -12 94z" />
<glyph unicode="&#xf9;" horiz-adv-x="1122" d="M69 218q0 35 10 83l164 770h180l-151 -711q-10 -49 -10 -85q0 -77 45.5 -113.5t117.5 -36.5q138 0 237.5 93.5t136.5 262.5l126 590h180l-228 -1071h-170l33 156l-3 4q-144 -191 -382 -191q-131 0 -208.5 67t-77.5 182zM490 1503h214l86 -289h-137z" />
<glyph unicode="&#xfa;" horiz-adv-x="1122" d="M69 218q0 35 10 83l164 770h180l-151 -711q-10 -49 -10 -85q0 -77 45.5 -113.5t117.5 -36.5q138 0 237.5 93.5t136.5 262.5l126 590h180l-228 -1071h-170l33 156l-3 4q-144 -191 -382 -191q-131 0 -208.5 67t-77.5 182zM613 1214l208 289h214l-285 -289h-137z" />
<glyph unicode="&#xfb;" horiz-adv-x="1122" d="M69 218q0 35 10 83l164 770h180l-151 -711q-10 -49 -10 -85q0 -77 45.5 -113.5t117.5 -36.5q138 0 237.5 93.5t136.5 262.5l126 590h180l-228 -1071h-170l33 156l-3 4q-144 -191 -382 -191q-131 0 -208.5 67t-77.5 182zM405 1214l264 289h190l142 -289h-160l-94 191 l-176 -191h-166z" />
<glyph unicode="&#xfc;" horiz-adv-x="1122" d="M69 218q0 35 10 83l164 770h180l-151 -711q-10 -49 -10 -85q0 -77 45.5 -113.5t117.5 -36.5q138 0 237.5 93.5t136.5 262.5l126 590h180l-228 -1071h-170l33 156l-3 4q-144 -191 -382 -191q-131 0 -208.5 67t-77.5 182zM453 1261l44 209h186l-44 -209h-186zM785 1261 l44 209h186l-44 -209h-186z" />
<glyph unicode="&#xfd;" horiz-adv-x="1016" d="M-84 -422l35 161q63 -16 109 -16q53 0 94 34.5t106 147.5l39 65l-163 1101h200l103 -872h4l471 872h200l-667 -1158q-135 -234 -218.5 -292.5t-186.5 -58.5q-66 0 -126 16zM565 1214l208 289h214l-285 -289h-137z" />
<glyph unicode="&#xfe;" horiz-adv-x="1157" d="M-65 -424l402 1894h180l-113 -534h4q150 166 340 166q165 0 260.5 -107t95.5 -281q0 -278 -174 -511.5t-428 -233.5q-191 0 -267 152h-4l-116 -545h-180zM290 378q0 -116 61.5 -184.5t163.5 -68.5q173 0 285.5 177t112.5 392q0 118 -56.5 182t-161.5 64 q-182 0 -293.5 -179t-111.5 -383z" />
<glyph unicode="&#xff;" horiz-adv-x="1016" d="M-84 -422l35 161q63 -16 109 -16q53 0 94 34.5t106 147.5l39 65l-163 1101h200l103 -872h4l471 872h200l-667 -1158q-135 -234 -218.5 -292.5t-186.5 -58.5q-66 0 -126 16zM405 1261l44 209h186l-44 -209h-186zM737 1261l44 209h186l-44 -209h-186z" />
<glyph unicode="&#x152;" horiz-adv-x="2078" d="M106 500q0 381 221 695t561 314q265 0 360 -193h4l32 154h194h707l-37 -176h-715l-96 -450h682l-37 -176h-682l-105 -492h719l-37 -176h-717h-190l33 154h-4q-162 -193 -413 -193q-216 0 -348 146t-132 393zM310 502q0 -181 85.5 -276t230.5 -95q163 0 282 90t152 250 l114 537q9 43 9 81q0 112 -86.5 181t-224.5 69q-257 0 -409.5 -261t-152.5 -576z" />
<glyph unicode="&#x153;" horiz-adv-x="1928" d="M62 382q0 278 178 498.5t459 220.5q255 0 353 -216q173 217 443 217q178 0 275.5 -103.5t97.5 -301.5q0 -104 -27 -220h-783q-13 -48 -13 -106q0 -116 60.5 -181t177.5 -65q113 0 204 57.5t128 153.5h183q-66 -169 -207 -268.5t-336 -99.5q-271 0 -368 208 q-153 -206 -434 -206q-184 0 -287.5 115.5t-103.5 296.5zM250 399q0 -117 62.5 -195t170.5 -78q181 0 300 165.5t119 380.5q0 117 -62.5 195t-170.5 78q-181 0 -300 -165.5t-119 -380.5zM1089 621h596q7 49 7 83q0 117 -59.5 176.5t-170.5 59.5q-127 0 -225 -82t-148 -237z " />
<glyph unicode="&#x178;" horiz-adv-x="1328" d="M212 1470h231l272 -706l572 706h233l-741 -878l-126 -592h-198l126 592zM645 1651l44 209h186l-44 -209h-186zM977 1651l44 209h186l-44 -209h-186z" />
<glyph unicode="&#x2c6;" horiz-adv-x="680" d="M191 1214l264 289h190l142 -289h-160l-94 191l-176 -191h-166z" />
<glyph unicode="&#x2dc;" horiz-adv-x="680" d="M158 1241q35 109 98.5 164t153.5 55q51 0 99 -18l107 -41q43 -16 66 -16q85 2 116 94h101q-30 -103 -96 -163.5t-147 -60.5q-42 0 -103 21l-94 34q-59 21 -91 21q-75 0 -112 -90h-98z" />
<glyph unicode="&#x2000;" horiz-adv-x="969" />
<glyph unicode="&#x2001;" horiz-adv-x="1938" />
<glyph unicode="&#x2002;" horiz-adv-x="969" />
<glyph unicode="&#x2003;" horiz-adv-x="1938" />
<glyph unicode="&#x2004;" horiz-adv-x="646" />
<glyph unicode="&#x2005;" horiz-adv-x="484" />
<glyph unicode="&#x2006;" horiz-adv-x="323" />
<glyph unicode="&#x2007;" horiz-adv-x="323" />
<glyph unicode="&#x2008;" horiz-adv-x="242" />
<glyph unicode="&#x2009;" horiz-adv-x="387" />
<glyph unicode="&#x200a;" horiz-adv-x="107" />
<glyph unicode="&#x2010;" horiz-adv-x="682" d="M81 475l39 184h502l-39 -184h-502z" />
<glyph unicode="&#x2011;" horiz-adv-x="682" d="M81 475l39 184h502l-39 -184h-502z" />
<glyph unicode="&#x2012;" horiz-adv-x="682" d="M81 475l39 184h502l-39 -184h-502z" />
<glyph unicode="&#x2013;" horiz-adv-x="1024" d="M-5 492l31 149h1024l-31 -149h-1024z" />
<glyph unicode="&#x2014;" horiz-adv-x="2048" d="M-5 492l31 149h2048l-31 -149h-2048z" />
<glyph unicode="&#x2018;" horiz-adv-x="455" d="M228 963l42 200q30 141 97 218t185 104l-21 -96q-111 -14 -152 -209h108l-46 -217h-213z" />
<glyph unicode="&#x2019;" horiz-adv-x="455" d="M201 948l20 96q111 14 152 209h-108l46 217h213l-42 -200q-30 -141 -97 -218t-184 -104z" />
<glyph unicode="&#x201a;" horiz-adv-x="455" d="M-65 -301l20 94q112 13 153 207h-109l46 217h213l-43 -201q-32 -152 -112 -229q-81 -78 -168 -88z" />
<glyph unicode="&#x201c;" horiz-adv-x="682" d="M174 963l42 200q30 141 97 218t185 104l-21 -96q-111 -14 -152 -209h108l-46 -217h-213zM511 963l42 200q30 141 97 218t185 104l-21 -96q-111 -14 -152 -209h108l-46 -217h-213z" />
<glyph unicode="&#x201d;" horiz-adv-x="682" d="M147 948l20 96q111 14 152 209h-108l46 217h213l-42 -200q-30 -141 -97 -218t-184 -104zM483 948l20 96q111 14 152 209h-108l46 217h213l-42 -200q-30 -141 -97 -218t-184 -104z" />
<glyph unicode="&#x201e;" horiz-adv-x="682" d="M-121 -301l20 94q112 13 153 207h-109l46 217h213l-43 -201q-32 -152 -112 -229q-81 -78 -168 -88zM216 -301l20 94q112 13 153 207h-109l46 217h213l-43 -201q-32 -152 -112 -229q-81 -78 -168 -88z" />
<glyph unicode="&#x2022;" horiz-adv-x="800" d="M77 735q0 137 91.5 230.5t229.5 93.5q137 0 230.5 -93.5t93.5 -230.5t-93.5 -229t-230.5 -92t-229 91.5t-92 229.5z" />
<glyph unicode="&#x2026;" horiz-adv-x="2048" d="M126 0l46 217h213l-46 -217h-213zM808 0l46 217h213l-46 -217h-213zM1489 0l46 217h213l-46 -217h-213z" />
<glyph unicode="&#x202f;" horiz-adv-x="387" />
<glyph unicode="&#x2039;" horiz-adv-x="682" d="M171 473l40 189l375 251l-40 -190l-250 -166l179 -166l-36 -170z" />
<glyph unicode="&#x203a;" horiz-adv-x="682" d="M117 221l40 190l251 166l-180 166l36 170l269 -251l-40 -189z" />
<glyph unicode="&#x205f;" horiz-adv-x="484" />
<glyph unicode="&#x20ac;" d="M58 546l43 109h99q12 76 33 151h-120l43 109h111q89 256 243 405.5t347 149.5q166 0 257.5 -92.5t91.5 -264.5q0 -12 -2 -36h-172q1 112 -46 171.5t-156 59.5q-235 0 -375 -393h513l-43 -109h-503q-19 -71 -32 -151h474l-43 -109h-445q-5 -53 -5 -106q0 -157 57 -232 t161 -75q205 0 303 251h170q-49 -180 -178 -296.5t-309 -116.5q-188 0 -292 115.5t-104 339.5q0 57 6 120h-127z" />
<glyph unicode="&#x2122;" horiz-adv-x="2048" d="M271 1348l25 122h264h146h260l-25 -122h-260l-154 -721h-150l154 721h-260zM934 627l179 843h144h86l110 -620l369 620h80h149l-179 -843h-149l146 686h-4l-410 -686h-103l-118 686h-4l-146 -686h-150z" />
<glyph unicode="&#x25fc;" horiz-adv-x="1070" d="M0 0v1070h1070v-1070h-1070z" />
<glyph unicode="&#xfb01;" horiz-adv-x="1018" d="M62 0l196 922h-147l32 149h147l39 184q25 121 110.5 178.5t218.5 57.5q40 0 81 -4l-34 -161q-33 4 -74 4q-54 0 -85.5 -25t-44.5 -89l-31 -145h181l-32 -149h-181l-196 -922h-180zM593 0l228 1071h180l-228 -1071h-180zM862 1266l43 204h180l-43 -204h-180z" />
<glyph unicode="&#xfb02;" horiz-adv-x="1018" d="M62 0l196 922h-147l32 149h147l39 184q25 121 110.5 178.5t218.5 57.5q40 0 81 -4l-34 -161q-33 4 -74 4q-54 0 -85.5 -25t-44.5 -89l-31 -145h181l-32 -149h-181l-196 -922h-180zM593 0l312 1470h180l-312 -1470h-180z" />
<glyph unicode="&#xfb03;" horiz-adv-x="1586" d="M62 0l196 922h-147l32 149h147l39 184q25 121 110.5 178.5t218.5 57.5q40 0 81 -4l-34 -161q-33 4 -74 4q-54 0 -85.5 -25t-44.5 -89l-31 -145h181l-32 -149h-181l-196 -922h-180zM630 0l196 922h-147l32 149h147l39 184q25 121 110.5 178.5t218.5 57.5q40 0 81 -4 l-34 -161q-33 4 -74 4q-54 0 -85.5 -25t-44.5 -89l-31 -145h181l-32 -149h-181l-196 -922h-180zM1161 0l228 1071h180l-228 -1071h-180zM1430 1266l43 204h180l-43 -204h-180z" />
<glyph unicode="&#xfb04;" horiz-adv-x="1586" d="M62 0l196 922h-147l32 149h147l39 184q25 121 110.5 178.5t218.5 57.5q40 0 81 -4l-34 -161q-33 4 -74 4q-54 0 -85.5 -25t-44.5 -89l-31 -145h181l-32 -149h-181l-196 -922h-180zM630 0l196 922h-147l32 149h147l39 184q25 121 110.5 178.5t218.5 57.5q40 0 81 -4 l-34 -161q-33 4 -74 4q-54 0 -85.5 -25t-44.5 -89l-31 -145h181l-32 -149h-181l-196 -922h-180zM1161 0l312 1470h180l-312 -1470h-180z" />
</font>
</defs>
</svg>
